<?xml version="1.0" encoding="UTF-8"?> <svg xmlns="http://www.w3.org/2000/svg" viewBox="0 0 367.563 203.377"> <defs> <style>.a{fill:#ffcf01;}.b{fill:#fff;}</style> </defs> <title>Logo-Portrait-White</title> <path class="a" d="M253.589,57.284,329.32,0H291.7L234.782,43.6l-15.06-9.891H183.971l32.49,24.061L191.3,79.021c-12.826,10.873-30.8,26.066-57.427,26.066-10.5,0-25.385-2.37-33.689-11.533L222.937,0H148.673C103.237,0,80.032,26.256,80.032,58.749c0,6.714,1.464,15.143,3.174,19.052L32.275,115.542H71.236L94.81,97.71c8.55,10.623,26.752,20.517,46.036,20.616C172.6,118.6,201.263,97.47,211.453,89.4l23.083-18.32,60.216,44.459h42.117ZM88.7,73.647c-.732-1.831-1.465-8.67-1.465-12.7,0-21.739,15.267-40.549,55.327-40.549h21.008s-4.736,2.073-15.146,9.769S88.7,73.647,88.7,73.647"></path> <polygon class="b" points="90.435 164.535 101.359 149.008 118.557 149.008 98.98 174.919 119.419 202.018 101.79 202.018 90.111 185.503 78.429 202.018 61.233 202.018 81.567 175.119 61.992 149.008 79.62 149.008 90.435 164.535"></polygon> <path class="b" d="M268.494,196.31l4.154-11.623c5.874,4.185,14.484,6.876,19.551,6.876,4.452,0,6.48-1.595,6.48-3.984v-.2c0-3.29-5.267-4.386-11.243-6.179-7.6-2.194-16.207-5.682-16.207-16.044v-.2c0-10.861,8.916-16.939,19.855-16.939,6.885,0,13,1.428,18.879,5.316l-3.145,11.32c-5.369-3.087-12.089-4.98-16.04-4.98-3.747,0-5.671,1.6-5.671,3.689v.2c0,2.99,5.166,4.383,11.04,6.377,7.6,2.49,16.41,6.079,16.41,15.843v.2c0,11.858-9.015,17.238-20.765,17.237-7.6,0-16.107-1.331-23.3-6.911"></path> <path class="b" d="M323.5,196.31l4.153-11.623c5.876,4.185,14.486,6.876,19.551,6.876,4.455,0,6.482-1.595,6.482-3.984v-.2c0-3.29-5.267-4.386-11.243-6.179-7.6-2.193-16.207-5.68-16.207-16.044v-.2c0-10.861,8.914-16.939,19.855-16.939,6.887,0,13,1.428,18.878,5.316l-3.146,11.32c-5.368-3.087-12.088-4.98-16.038-4.98-3.748,0-5.673,1.6-5.673,3.689v.2c0,2.99,5.168,4.383,11.042,6.377,7.6,2.49,16.408,6.079,16.408,15.843v.2c0,11.858-9.013,17.238-20.764,17.238-7.6,0-16.106-1.332-23.3-6.912"></path> <path class="b" d="M133.68,148.965h15.844v8.6c3.119-3.418,8.156-9.462,17.3-9.462,11.527,0,18.366,6.17,18.366,22.793v31.126H169.92V172.149c0-6.462-3.038-10.319-7.634-10.319-5.344,0-9.937,3.251-12.762,6.885v33.3H133.68Z"></path> <path class="b" d="M52.893,188.163c-1.561,3.843-6.663,15.214-24.795,15.214-8.406,0-14.77-2.4-19.932-7.326C2.4,190.648,0,183.922,0,175.758c0-10.326,4.2-16.689,7.924-20.414,6.126-6,13.331-7.324,19.576-7.324,10.567,0,16.69,4.2,20.292,8.524,5.524,6.6,6.244,14.771,6.244,20.414v1.2H15.13a15.333,15.333,0,0,0,2.522,8.766c1.56,2.162,4.8,4.923,10.446,4.923A13.4,13.4,0,0,0,40.226,185Zm-12.667-19.37a12.246,12.246,0,0,0-12.368-10.446A12.238,12.238,0,0,0,15.61,168.793Z"></path> <path class="b" d="M253.73,188.163c-1.562,3.843-6.666,15.214-24.8,15.214-8.4,0-14.769-2.4-19.932-7.326-5.763-5.4-8.163-12.129-8.163-20.293,0-10.326,4.2-16.689,7.925-20.414,6.126-6,13.327-7.324,19.573-7.324,10.566,0,16.691,4.2,20.294,8.524,5.521,6.6,6.243,14.771,6.243,20.414v1.2h-38.9a15.332,15.332,0,0,0,2.52,8.766c1.558,2.162,4.8,4.923,10.444,4.923A13.4,13.4,0,0,0,241.062,185Zm-12.668-19.37a12.473,12.473,0,0,0-24.615,0Z"></path> </svg> 